<svg width="26" height="19" viewBox="0 0 26 19" fill="none" xmlns="http://www.w3.org/2000/svg">
<mask id="path-1-inside-1" fill="white">
<path fill-rule="evenodd" clip-rule="evenodd" d="M0 3C0 1.34315 1.34315 0 3 0H23C24.6569 0 26 1.34315 26 3V16C26 17.6569 24.6569 19 23 19H3C1.34315 19 0 17.6569 0 16V3ZM5 4C5 3.44772 5.44772 3 6 3C6.55228 3 7 3.44772 7 4V7H8C8.55228 7 9 7.44772 9 8C9 8.55229 8.55228 9 8 9H7V15C7 15.5523 6.55228 16 6 16C5.44772 16 5 15.5523 5 15V9H4C3.44772 9 3 8.55229 3 8C3 7.44772 3.44772 7 4 7H5V4ZM13 3C12.4477 3 12 3.44772 12 4V11H11C10.4477 11 10 11.4477 10 12C10 12.5523 10.4477 13 11 13H12V15C12 15.5523 12.4477 16 13 16C13.5523 16 14 15.5523 14 15V13H15C15.5523 13 16 12.5523 16 12C16 11.4477 15.5523 11 15 11H14V4C14 3.44772 13.5523 3 13 3ZM19 4C19 3.44772 19.4477 3 20 3C20.5523 3 21 3.44772 21 4V9H22C22.5523 9 23 9.44771 23 10C23 10.5523 22.5523 11 22 11H21V15C21 15.5523 20.5523 16 20 16C19.4477 16 19 15.5523 19 15V11H18C17.4477 11 17 10.5523 17 10C17 9.44771 17.4477 9 18 9H19V4Z"/>
</mask>
<path fill-rule="evenodd" clip-rule="evenodd" d="M0 3C0 1.34315 1.34315 0 3 0H23C24.6569 0 26 1.34315 26 3V16C26 17.6569 24.6569 19 23 19H3C1.34315 19 0 17.6569 0 16V3ZM5 4C5 3.44772 5.44772 3 6 3C6.55228 3 7 3.44772 7 4V7H8C8.55228 7 9 7.44772 9 8C9 8.55229 8.55228 9 8 9H7V15C7 15.5523 6.55228 16 6 16C5.44772 16 5 15.5523 5 15V9H4C3.44772 9 3 8.55229 3 8C3 7.44772 3.44772 7 4 7H5V4ZM13 3C12.4477 3 12 3.44772 12 4V11H11C10.4477 11 10 11.4477 10 12C10 12.5523 10.4477 13 11 13H12V15C12 15.5523 12.4477 16 13 16C13.5523 16 14 15.5523 14 15V13H15C15.5523 13 16 12.5523 16 12C16 11.4477 15.5523 11 15 11H14V4C14 3.44772 13.5523 3 13 3ZM19 4C19 3.44772 19.4477 3 20 3C20.5523 3 21 3.44772 21 4V9H22C22.5523 9 23 9.44771 23 10C23 10.5523 22.5523 11 22 11H21V15C21 15.5523 20.5523 16 20 16C19.4477 16 19 15.5523 19 15V11H18C17.4477 11 17 10.5523 17 10C17 9.44771 17.4477 9 18 9H19V4Z" fill="white"/>
<path d="M7 7H4.90323V9.09677H7V7ZM7 9V6.90323H4.90323V9H7ZM5 9H7.09677V6.90323H5V9ZM5 7V9.09677H7.09677V7H5ZM12 11V13.0968H14.0968V11H12ZM12 13H14.0968V10.9032H12V13ZM14 13V10.9032H11.9032V13H14ZM14 11H11.9032V13.0968H14V11ZM21 9H18.9032V11.0968H21V9ZM21 11V8.90323H18.9032V11H21ZM19 11H21.0968V8.90323H19V11ZM19 9V11.0968H21.0968V9H19ZM3 -2.09677C0.18513 -2.09677 -2.09677 0.185129 -2.09677 3H2.09677C2.09677 2.50116 2.50116 2.09677 3 2.09677V-2.09677ZM23 -2.09677H3V2.09677H23V-2.09677ZM28.0968 3C28.0968 0.185129 25.8149 -2.09677 23 -2.09677V2.09677C23.4988 2.09677 23.9032 2.50116 23.9032 3H28.0968ZM28.0968 16V3H23.9032V16H28.0968ZM23 21.0968C25.8149 21.0968 28.0968 18.8149 28.0968 16H23.9032C23.9032 16.4988 23.4988 16.9032 23 16.9032V21.0968ZM3 21.0968H23V16.9032H3V21.0968ZM-2.09677 16C-2.09677 18.8149 0.185131 21.0968 3 21.0968V16.9032C2.50116 16.9032 2.09677 16.4988 2.09677 16H-2.09677ZM-2.09677 3V16H2.09677V3H-2.09677ZM6 0.903226C4.2897 0.903226 2.90323 2.2897 2.90323 4H7.09677C7.09677 4.60573 6.60573 5.09677 6 5.09677V0.903226ZM9.09677 4C9.09677 2.2897 7.7103 0.903226 6 0.903226V5.09677C5.39427 5.09677 4.90323 4.60573 4.90323 4H9.09677ZM9.09677 7V4H4.90323V7H9.09677ZM8 4.90323H7V9.09677H8V4.90323ZM11.0968 8C11.0968 6.2897 9.7103 4.90323 8 4.90323V9.09677C7.39427 9.09677 6.90323 8.60573 6.90323 8H11.0968ZM8 11.0968C9.7103 11.0968 11.0968 9.7103 11.0968 8H6.90323C6.90323 7.39427 7.39427 6.90323 8 6.90323V11.0968ZM7 11.0968H8V6.90323H7V11.0968ZM9.09677 15V9H4.90323V15H9.09677ZM6 18.0968C7.7103 18.0968 9.09677 16.7103 9.09677 15H4.90323C4.90323 14.3943 5.39427 13.9032 6 13.9032V18.0968ZM2.90323 15C2.90323 16.7103 4.2897 18.0968 6 18.0968V13.9032C6.60573 13.9032 7.09677 14.3943 7.09677 15H2.90323ZM2.90323 9V15H7.09677V9H2.90323ZM4 11.0968H5V6.90323H4V11.0968ZM0.903226 8C0.903226 9.7103 2.2897 11.0968 4 11.0968V6.90323C4.60573 6.90323 5.09677 7.39427 5.09677 8H0.903226ZM4 4.90323C2.2897 4.90323 0.903226 6.2897 0.903226 8H5.09677C5.09677 8.60573 4.60573 9.09677 4 9.09677V4.90323ZM5 4.90323H4V9.09677H5V4.90323ZM2.90323 4V7H7.09677V4H2.90323ZM14.0968 4C14.0968 4.60573 13.6057 5.09677 13 5.09677V0.903226C11.2897 0.903226 9.90323 2.2897 9.90323 4H14.0968ZM14.0968 11V4H9.90323V11H14.0968ZM11 13.0968H12V8.90323H11V13.0968ZM12.0968 12C12.0968 12.6057 11.6057 13.0968 11 13.0968V8.90323C9.2897 8.90323 7.90323 10.2897 7.90323 12H12.0968ZM11 10.9032C11.6057 10.9032 12.0968 11.3943 12.0968 12H7.90323C7.90323 13.7103 9.2897 15.0968 11 15.0968V10.9032ZM12 10.9032H11V15.0968H12V10.9032ZM14.0968 15V13H9.90323V15H14.0968ZM13 13.9032C13.6057 13.9032 14.0968 14.3943 14.0968 15H9.90323C9.90323 16.7103 11.2897 18.0968 13 18.0968V13.9032ZM11.9032 15C11.9032 14.3943 12.3943 13.9032 13 13.9032V18.0968C14.7103 18.0968 16.0968 16.7103 16.0968 15H11.9032ZM11.9032 13V15H16.0968V13H11.9032ZM15 10.9032H14V15.0968H15V10.9032ZM13.9032 12C13.9032 11.3943 14.3943 10.9032 15 10.9032V15.0968C16.7103 15.0968 18.0968 13.7103 18.0968 12H13.9032ZM15 13.0968C14.3943 13.0968 13.9032 12.6057 13.9032 12H18.0968C18.0968 10.2897 16.7103 8.90323 15 8.90323V13.0968ZM14 13.0968H15V8.90323H14V13.0968ZM11.9032 4V11H16.0968V4H11.9032ZM13 5.09677C12.3943 5.09677 11.9032 4.60573 11.9032 4H16.0968C16.0968 2.2897 14.7103 0.903226 13 0.903226V5.09677ZM20 0.903226C18.2897 0.903226 16.9032 2.2897 16.9032 4H21.0968C21.0968 4.60573 20.6057 5.09677 20 5.09677V0.903226ZM23.0968 4C23.0968 2.2897 21.7103 0.903226 20 0.903226V5.09677C19.3943 5.09677 18.9032 4.60573 18.9032 4H23.0968ZM23.0968 9V4H18.9032V9H23.0968ZM21 11.0968H22V6.90323H21V11.0968ZM22 11.0968C21.3943 11.0968 20.9032 10.6057 20.9032 10H25.0968C25.0968 8.2897 23.7103 6.90323 22 6.90323V11.0968ZM20.9032 10C20.9032 9.39427 21.3943 8.90323 22 8.90323V13.0968C23.7103 13.0968 25.0968 11.7103 25.0968 10H20.9032ZM22 8.90323H21V13.0968H22V8.90323ZM23.0968 15V11H18.9032V15H23.0968ZM20 18.0968C21.7103 18.0968 23.0968 16.7103 23.0968 15H18.9032C18.9032 14.3943 19.3943 13.9032 20 13.9032V18.0968ZM16.9032 15C16.9032 16.7103 18.2897 18.0968 20 18.0968V13.9032C20.6057 13.9032 21.0968 14.3943 21.0968 15H16.9032ZM16.9032 11V15H21.0968V11H16.9032ZM19 8.90323H18V13.0968H19V8.90323ZM18 8.90323C18.6057 8.90323 19.0968 9.39427 19.0968 10H14.9032C14.9032 11.7103 16.2897 13.0968 18 13.0968V8.90323ZM19.0968 10C19.0968 10.6057 18.6057 11.0968 18 11.0968V6.90323C16.2897 6.90323 14.9032 8.2897 14.9032 10H19.0968ZM18 11.0968H19V6.90323H18V11.0968ZM16.9032 4V9H21.0968V4H16.9032Z" fill="white" mask="url(#path-1-inside-1)"/>
</svg>
